<svg width="88" height="23" viewBox="0 0 88 23" fill="none" xmlns="http://www.w3.org/2000/svg">
    <path
        d="M16.5531 2.07317C15.5314 0.908615 13.6845 0.409344 11.3218 0.409344H4.46446C4.23057 0.40922 4.00431 0.492577 3.82641 0.644411C3.6485 0.796247 3.53063 1.00659 3.49399 1.23759L0.639979 19.3474C0.626746 19.4314 0.631882 19.5173 0.655035 19.5991C0.678188 19.681 0.718807 19.7568 0.774093 19.8214C0.82938 19.8861 0.898019 19.9379 0.975283 19.9735C1.05255 20.009 1.1366 20.0274 1.22165 20.0273H5.45506L6.5183 13.2835L6.48534 13.4947C6.52127 13.2642 6.63836 13.0541 6.8155 12.9022C6.99265 12.7503 7.2182 12.6667 7.45153 12.6665H9.46326C13.4153 12.6665 16.5098 11.0612 17.4137 6.41767C17.4406 6.28034 17.4638 6.14667 17.4839 6.01606C17.7525 4.29974 17.4821 3.13153 16.5537 2.07378"
        fill="#003087" />
    <path
        d="M68.3797 10.6943C68.1209 12.3935 66.8232 12.3935 65.5684 12.3935H64.8542L65.3553 9.22091C65.3859 9.02925 65.5507 8.88826 65.7448 8.88826H66.0725C66.927 8.88826 67.7339 8.88826 68.1502 9.37471C68.3986 9.66585 68.4736 10.098 68.3797 10.6943ZM67.8334 6.26069H63.0995C62.9427 6.26077 62.7911 6.31673 62.6718 6.41852C62.5526 6.52032 62.4735 6.66128 62.4488 6.81611L60.536 18.9542C60.5272 19.0105 60.5307 19.068 60.5462 19.1228C60.5617 19.1776 60.5889 19.2284 60.6259 19.2717C60.6629 19.315 60.7088 19.3498 60.7605 19.3737C60.8122 19.3976 60.8684 19.41 60.9254 19.4102H63.3546C63.5811 19.4102 63.7739 19.2454 63.8093 19.022L64.3525 15.5796C64.4026 15.2604 64.6785 15.0242 65.002 15.0242H66.4998C69.6187 15.0242 71.418 13.516 71.888 10.5246C72.0998 9.21724 71.8965 8.18941 71.2843 7.4698C70.6111 6.67878 69.4179 6.26008 67.834 6.26008"
        fill="#009CDE" />
    <path
        d="M34.6141 10.6901C34.3553 12.3894 33.0577 12.3894 31.8022 12.3894H31.0881L31.5892 9.21675C31.6197 9.0251 31.7845 8.88411 31.9786 8.88411H32.3064C33.1609 8.88411 33.9678 8.88411 34.384 9.37057C34.6331 9.6617 34.7081 10.0938 34.6141 10.6901ZM34.0679 6.25654H29.334C29.0105 6.25654 28.7346 6.49214 28.6839 6.81196L26.7705 18.9501C26.7616 19.0064 26.765 19.0639 26.7804 19.1188C26.7959 19.1736 26.8231 19.2245 26.8601 19.2678C26.8971 19.3111 26.9431 19.3459 26.9948 19.3698C27.0466 19.3936 27.1029 19.406 27.1599 19.406H29.4206C29.7441 19.406 30.0194 19.1704 30.07 18.8506L30.587 15.576C30.6371 15.2562 30.9129 15.0206 31.2364 15.0206H32.7342C35.8532 15.0206 37.6525 13.5118 38.1225 10.5205C38.3342 9.21309 38.131 8.18526 37.5188 7.46565C36.8456 6.67463 35.6523 6.25593 34.0685 6.25593L34.0679 6.25654ZM45.0585 15.0481C44.8388 16.3432 43.8116 17.213 42.4999 17.213C41.8426 17.213 41.3158 17.0012 40.9777 16.6008C40.642 16.2041 40.5163 15.6383 40.6225 15.009C40.8263 13.7248 41.8712 12.8276 43.1628 12.8276C43.8067 12.8276 44.3285 13.0412 44.674 13.4453C45.0213 13.8524 45.158 14.4212 45.0585 15.0481ZM48.2177 10.6352H45.9508C45.8566 10.6351 45.7654 10.6687 45.6938 10.7299C45.6222 10.7912 45.5748 10.876 45.5602 10.9691L45.4613 11.6026L45.3027 11.3731C44.8119 10.6609 43.7176 10.4222 42.625 10.4222C40.1207 10.4222 37.9815 12.3204 37.5652 14.9815C37.3485 16.3103 37.6561 17.5792 38.4093 18.4648C39.1008 19.2784 40.0878 19.6172 41.2639 19.6172C43.283 19.6172 44.4024 18.3208 44.4024 18.3208L44.3011 18.9507C44.2921 19.007 44.2956 19.0646 44.3111 19.1195C44.3266 19.1744 44.3538 19.2253 44.3909 19.2686C44.428 19.312 44.474 19.3468 44.5258 19.3706C44.5777 19.3944 44.634 19.4067 44.6911 19.4066H46.7321C47.0556 19.4066 47.3315 19.1716 47.3821 18.8512L48.6077 11.0918C48.6165 11.0354 48.613 10.9778 48.5975 10.9229C48.5819 10.868 48.5546 10.8171 48.5175 10.7738C48.4803 10.7305 48.4343 10.6957 48.3824 10.6719C48.3306 10.6481 48.2742 10.6358 48.2171 10.6358"
        fill="#003087" />
    <path
        d="M78.8267 15.0481C78.607 16.3432 77.5798 17.213 76.2681 17.213C75.6108 17.213 75.0841 17.0012 74.7459 16.6008C74.4102 16.2041 74.2845 15.6383 74.3907 15.009C74.5945 13.7248 75.6389 12.8276 76.931 12.8276C77.5749 12.8276 78.0968 13.0412 78.4422 13.4453C78.7895 13.8524 78.9262 14.4212 78.8267 15.0481ZM81.9859 10.6352H79.7191C79.6248 10.6351 79.5337 10.6687 79.462 10.7299C79.3904 10.7912 79.343 10.876 79.3285 10.9691L79.2296 11.6026L79.0709 11.3731C78.5802 10.6609 77.4858 10.4222 76.3933 10.4222C73.8896 10.4222 71.7503 12.3204 71.3334 14.9815C71.1168 16.3103 71.425 17.5792 72.1782 18.4648C72.8697 19.2784 73.8566 19.6172 75.0328 19.6172C77.0524 19.6172 78.1718 18.3208 78.1718 18.3208L78.0705 18.9507C78.0614 19.0069 78.0646 19.0645 78.08 19.1194C78.0953 19.1743 78.1224 19.2252 78.1594 19.2686C78.1964 19.312 78.2424 19.3468 78.2942 19.3706C78.346 19.3944 78.4023 19.4067 78.4593 19.4066H80.4997C80.8232 19.4066 81.0991 19.1716 81.1504 18.8512L82.3759 11.0918C82.3848 11.0354 82.3813 10.9778 82.3657 10.9229C82.3501 10.868 82.3228 10.8171 82.2857 10.7738C82.2486 10.7305 82.2025 10.6957 82.1506 10.6719C82.0988 10.6481 82.0424 10.6358 81.9853 10.6358"
        fill="#009CDE" />
    <path
        d="M60.297 10.6381H58.0179C57.8 10.6381 57.5968 10.7462 57.4747 10.9268L54.3314 15.5558L52.999 11.1075C52.9583 10.9718 52.875 10.8528 52.7615 10.7682C52.6479 10.6835 52.5101 10.6377 52.3685 10.6375H50.1291C50.0663 10.6376 50.0044 10.6526 49.9486 10.6813C49.8927 10.71 49.8446 10.7517 49.808 10.8028C49.7715 10.8538 49.7477 10.9129 49.7386 10.975C49.7294 11.0371 49.7353 11.1006 49.7555 11.16L52.2641 18.5245L49.9045 21.854C49.8628 21.9131 49.8381 21.9825 49.8332 22.0547C49.8282 22.1268 49.8432 22.199 49.8764 22.2632C49.9097 22.3274 49.9599 22.3813 50.0217 22.4189C50.0835 22.4566 50.1544 22.4765 50.2267 22.4766H52.5034C52.7182 22.4766 52.9202 22.371 53.0435 22.194L60.6205 11.2576C60.6616 11.1985 60.6858 11.1293 60.6903 11.0574C60.6949 10.9855 60.6797 10.9138 60.6463 10.8499C60.613 10.7861 60.5628 10.7326 60.5012 10.6953C60.4396 10.6579 60.369 10.6382 60.297 10.6381Z"
        fill="#003087" />
    <path
        d="M84.6512 6.59394L82.7079 18.9542C82.6991 19.0105 82.7025 19.0681 82.7181 19.123C82.7336 19.1778 82.7609 19.2286 82.7979 19.272C82.835 19.3153 82.881 19.3501 82.9328 19.3739C82.9846 19.3978 83.0409 19.4101 83.0979 19.4102H85.0516C85.3751 19.4102 85.651 19.1746 85.7017 18.8547L87.6176 6.71601C87.6265 6.65967 87.6231 6.60207 87.6076 6.54718C87.5921 6.49229 87.5648 6.44141 87.5277 6.39807C87.4907 6.35472 87.4446 6.31994 87.3928 6.29611C87.341 6.27229 87.2846 6.26 87.2275 6.26008H85.0413C84.9471 6.25984 84.8561 6.29332 84.7845 6.35446C84.713 6.41559 84.6657 6.50034 84.6512 6.59333"
        fill="#009CDE" />
    <path
        d="M16.5531 2.07317C15.5314 0.908615 13.6845 0.409344 11.3218 0.409344H4.46446C4.23057 0.40922 4.00431 0.492577 3.82641 0.644411C3.6485 0.796247 3.53063 1.00659 3.49399 1.23759L0.639979 19.3474C0.626746 19.4314 0.631882 19.5173 0.655035 19.5991C0.678188 19.681 0.718807 19.7568 0.774093 19.8214C0.82938 19.8861 0.898019 19.9379 0.975283 19.9735C1.05255 20.009 1.1366 20.0274 1.22165 20.0273H5.45506L6.5183 13.2835L6.48534 13.4947C6.52127 13.2642 6.63836 13.0541 6.8155 12.9022C6.99265 12.7503 7.2182 12.6667 7.45153 12.6665H9.46326C13.4153 12.6665 16.5098 11.0612 17.4137 6.41767C17.4406 6.28034 17.4638 6.14667 17.4839 6.01606C17.7525 4.29974 17.4821 3.13153 16.5537 2.07378"
        fill="#003087" />
    <path
        d="M7.66098 6.03925C7.69306 5.83741 7.79602 5.6536 7.9514 5.52082C8.10677 5.38804 8.30438 5.31499 8.50876 5.31476H13.8848C14.5214 5.31476 15.1152 5.35626 15.6578 5.44293C15.9545 5.49066 16.248 5.55629 16.5367 5.63947C16.8647 5.73166 17.182 5.85809 17.4834 6.01667C17.7532 4.29974 17.4822 3.13214 16.5538 2.07378C15.5315 0.909838 13.6852 0.410566 11.3225 0.410566H4.46455C4.23087 0.410732 4.00491 0.494219 3.82726 0.646029C3.64961 0.797838 3.53191 1.00802 3.49531 1.23882L0.640076 19.3468C0.626752 19.4308 0.631801 19.5167 0.654874 19.5986C0.677947 19.6804 0.718496 19.7563 0.773726 19.821C0.828956 19.8857 0.897554 19.9376 0.974793 19.9733C1.05203 20.0089 1.13608 20.0273 1.22113 20.0273H5.45516L6.51839 13.2829L7.66098 6.03925Z"
        fill="#003087" />
    <path
        d="M17.4844 6.01715C17.4635 6.15143 17.4401 6.28532 17.4142 6.41876C16.5103 11.0617 13.4158 12.6676 9.46375 12.6676H7.45142C7.21813 12.6677 6.99259 12.7513 6.81552 12.9032C6.63845 13.0551 6.52151 13.2653 6.48584 13.4958L5.45556 20.0278L5.16259 21.8809C5.15094 21.9544 5.15538 22.0296 5.17561 22.1013C5.19584 22.173 5.23137 22.2395 5.27976 22.2961C5.32814 22.3527 5.38823 22.3982 5.45589 22.4293C5.52354 22.4605 5.59714 22.4766 5.67162 22.4766H9.24037C9.66273 22.4766 10.0216 22.1689 10.0881 21.7521L10.1229 21.5702L10.7955 17.3075L10.8383 17.0719C10.8703 16.8699 10.9733 16.6859 11.1288 16.5531C11.2843 16.4203 11.4821 16.3473 11.6867 16.3474H12.2207C15.6778 16.3474 18.3847 14.9436 19.1757 10.8811C19.5053 9.18427 19.3344 7.76642 18.4616 6.77093C18.1845 6.4623 17.8533 6.20685 17.4844 6.01715Z"
        fill="#009CDE" />
    <path
        d="M16.5363 5.64084C16.3984 5.59994 16.2561 5.56332 16.1097 5.53097C15.9632 5.49862 15.8118 5.46994 15.6568 5.44552C15.1136 5.35702 14.5203 5.31552 13.8831 5.31552H8.5077C8.30309 5.31527 8.10515 5.38824 7.94966 5.52122C7.79417 5.65421 7.69139 5.83845 7.65992 6.04062L6.51733 13.2855L6.48438 13.4961C6.52005 13.2655 6.63698 13.0554 6.81405 12.9035C6.99112 12.7516 7.21667 12.668 7.44995 12.6678H9.46229C13.4143 12.6678 16.5088 11.0626 17.4128 6.41904C17.4396 6.28171 17.4622 6.14865 17.483 6.01743C17.2442 5.89252 16.9956 5.78758 16.7395 5.7037C16.673 5.68173 16.6053 5.66098 16.5363 5.64023"
        fill="#012169" />
</svg>