<svg width="61" height="48" viewBox="0 0 61 48" fill="none" xmlns="http://www.w3.org/2000/svg">
    <path
        d="M59.7505 46.4662V46.5866H59.8628C59.8839 46.587 59.9046 46.5817 59.923 46.5713C59.9303 46.5661 59.9362 46.5592 59.9401 46.5511C59.9441 46.5431 59.9459 46.5342 59.9456 46.5252C59.9459 46.5164 59.9441 46.5077 59.9401 46.4998C59.9362 46.492 59.9303 46.4853 59.923 46.4804C59.9049 46.4695 59.8839 46.4641 59.8628 46.465H59.7505V46.4662ZM59.864 46.381C59.9121 46.3781 59.9598 46.3919 59.9988 46.4202C60.0145 46.433 60.0269 46.4493 60.0351 46.4678C60.0434 46.4863 60.0471 46.5065 60.0461 46.5267C60.0468 46.5441 60.0438 46.5615 60.0373 46.5776C60.0307 46.5938 60.0208 46.6083 60.0082 46.6203C59.978 46.6465 59.9402 46.6623 59.9004 46.6652L60.0509 46.8368H59.935L59.7966 46.6664H59.7517V46.8368H59.6548V46.3813H59.8655L59.864 46.381ZM59.8339 46.9939C59.8847 46.9944 59.9351 46.9841 59.9817 46.9638C60.0266 46.9444 60.0675 46.9168 60.1021 46.8822C60.1368 46.8477 60.1645 46.8068 60.1837 46.7618C60.2232 46.6664 60.2232 46.5592 60.1837 46.4638C60.1642 46.4189 60.1365 46.3781 60.1021 46.3434C60.0675 46.3089 60.0266 46.2812 59.9817 46.2618C59.9348 46.2426 59.8845 46.233 59.8339 46.2335C59.7824 46.233 59.7312 46.2427 59.6834 46.2618C59.6375 46.2808 59.5956 46.3085 59.5603 46.3434C59.507 46.398 59.471 46.4671 59.4567 46.542C59.4424 46.617 59.4505 46.6944 59.4799 46.7648C59.4982 46.81 59.5256 46.851 59.5603 46.8852C59.5957 46.9201 59.6375 46.9478 59.6834 46.9668C59.7309 46.9871 59.7822 46.9974 59.8339 46.9969V46.9939ZM59.8339 46.124C59.9662 46.1238 60.0932 46.1757 60.1876 46.2684C60.2331 46.313 60.2693 46.3661 60.2941 46.4247C60.3199 46.4848 60.3331 46.5496 60.3331 46.6151C60.3331 46.6805 60.3199 46.7453 60.2941 46.8055C60.2687 46.8637 60.2326 46.9167 60.1876 46.9617C60.1414 47.006 60.0877 47.0416 60.0289 47.067C59.9673 47.0932 59.9009 47.1066 59.8339 47.1062C59.7661 47.1067 59.6989 47.0933 59.6364 47.067C59.577 47.0422 59.5228 47.0065 59.4766 46.9617C59.4316 46.9151 59.3959 46.8603 59.3715 46.8003C59.3458 46.7402 59.3325 46.6754 59.3325 46.6099C59.3325 46.5445 59.3458 46.4797 59.3715 46.4196C59.3964 46.3609 59.4326 46.3079 59.4781 46.2633C59.5237 46.2177 59.5781 46.1819 59.6379 46.158C59.7004 46.1317 59.7676 46.1184 59.8354 46.1188L59.8339 46.124ZM13.7428 44.3651C13.7428 43.4967 14.3118 42.7833 15.2416 42.7833C16.1302 42.7833 16.7298 43.466 16.7298 44.3651C16.7298 45.2643 16.1302 45.947 15.2416 45.947C14.3118 45.947 13.7428 45.2336 13.7428 44.3651ZM17.7427 44.3651V41.8938H16.6684V42.4959C16.3276 42.051 15.8108 41.7719 15.1079 41.7719C13.7233 41.7719 12.6366 42.858 12.6366 44.3663C12.6366 45.8747 13.7227 46.9608 15.1079 46.9608C15.8105 46.9608 16.3276 46.6814 16.6684 46.2368V46.8368H17.7415V44.3651H17.7427ZM54.0424 44.3651C54.0424 43.4967 54.6113 42.7833 55.5414 42.7833C56.4309 42.7833 57.0296 43.466 57.0296 44.3651C57.0296 45.2643 56.4309 45.947 55.5414 45.947C54.6116 45.947 54.0424 45.2336 54.0424 44.3651ZM58.0435 44.3651V39.9102H56.9683V42.4959C56.6275 42.051 56.1107 41.7719 55.4078 41.7719C54.0231 41.7719 52.9365 42.858 52.9365 44.3663C52.9365 45.8747 54.0225 46.9608 55.4078 46.9608C56.1107 46.9608 56.6275 46.6814 56.9683 46.2368V46.8368H58.0435V44.3651ZM31.0763 42.7325C31.7687 42.7325 32.2133 43.1665 32.3268 43.9308H29.7633C29.878 43.2174 30.3112 42.7325 31.0766 42.7325H31.0763ZM31.098 41.7692C29.6501 41.7692 28.6372 42.8228 28.6372 44.3636C28.6372 45.9346 29.6908 46.9581 31.17 46.9581C31.9141 46.9581 32.5956 46.7723 33.1952 46.2657L32.6687 45.4696C32.2545 45.8007 31.7271 45.9864 31.2314 45.9864C30.539 45.9864 29.9087 45.6658 29.7537 44.7763H33.4221C33.4327 44.6427 33.4435 44.5078 33.4435 44.3633C33.4327 42.8231 32.4803 41.7689 31.0974 41.7689L31.098 41.7692ZM44.0681 44.3633C44.0681 43.4949 44.637 42.7815 45.5668 42.7815C46.4554 42.7815 47.055 43.4642 47.055 44.3633C47.055 45.2625 46.4554 45.9452 45.5668 45.9452C44.637 45.9452 44.0677 45.2318 44.0677 44.3633H44.0681ZM48.0676 44.3633V41.8938H46.9939V42.4959C46.6519 42.051 46.1363 41.7719 45.4334 41.7719C44.0488 41.7719 42.9621 42.858 42.9621 44.3663C42.9621 45.8747 44.0482 46.9608 45.4334 46.9608C46.1363 46.9608 46.6519 46.6814 46.9939 46.2368V46.8368H48.0679V44.3651L48.0676 44.3633ZM38.0011 44.3633C38.0011 45.8621 39.0445 46.9578 40.6368 46.9578C41.3809 46.9578 41.8767 46.7922 42.4128 46.3687L41.8968 45.5003C41.4935 45.7901 41.07 45.9452 40.6025 45.9452C39.7449 45.9346 39.1143 45.3145 39.1143 44.3633C39.1143 43.4121 39.7449 42.7924 40.6025 42.7815C41.0688 42.7815 41.4923 42.9365 41.8968 43.2264L42.4128 42.358C41.8758 41.9345 41.38 41.7689 40.6368 41.7689C39.0445 41.7689 38.0011 42.8643 38.0011 44.3633ZM51.8507 41.7689C51.2309 41.7689 50.8273 42.0588 50.5483 42.4928V41.8938H49.4836V46.834H50.5591V44.0647C50.5591 43.2472 50.9104 42.793 51.6126 42.793C51.8426 42.7896 52.0709 42.8319 52.2845 42.9173L52.6156 41.9047C52.3778 41.8111 52.0678 41.7698 51.8501 41.7698L51.8507 41.7689ZM23.0541 42.2867C22.5372 41.9459 21.825 41.7698 21.0394 41.7698C19.7878 41.7698 18.982 42.3697 18.982 43.3513C18.982 44.1568 19.5819 44.6538 20.6866 44.8088L21.1941 44.8811C21.7832 44.9639 22.0613 45.1189 22.0613 45.3979C22.0613 45.7799 21.67 45.9978 20.9352 45.9978C20.1911 45.9978 19.6541 45.76 19.292 45.481L18.7872 46.3187C19.3763 46.7528 20.1204 46.9599 20.9262 46.9599C22.353 46.9599 23.1799 46.288 23.1799 45.3473C23.1799 44.4789 22.5291 44.0247 21.4539 43.8697L20.9476 43.7962C20.4825 43.736 20.1099 43.6424 20.1099 43.3113C20.1099 42.9501 20.4611 42.7328 21.0505 42.7328C21.6811 42.7328 22.2916 42.9705 22.5908 43.1563L23.0559 42.2879L23.0541 42.2867ZM36.916 41.7707C36.2962 41.7707 35.8925 42.0606 35.6147 42.4946V41.8938H34.55V46.834H35.6243V44.0647C35.6243 43.2472 35.9756 42.793 36.6779 42.793C36.9079 42.7896 37.1362 42.8319 37.3498 42.9173L37.6809 41.9047C37.4431 41.8111 37.133 41.7698 36.9154 41.7698L36.916 41.7707ZM27.7484 41.8938H25.9916V40.3951H24.9056V41.8938H23.9035V42.8757H24.9056V45.1294C24.9056 46.2757 25.3505 46.9584 26.6214 46.9584C27.0876 46.9584 27.6246 46.8139 27.9654 46.5764L27.655 45.6565C27.3345 45.8422 26.9832 45.9358 26.7038 45.9358C26.1668 45.9358 25.9916 45.6047 25.9916 45.1089V42.8766H27.7484V41.8938ZM11.6866 46.8353V43.7348C11.6866 42.5672 10.9425 41.7816 9.74298 41.771C9.11236 41.7605 8.46187 41.9567 8.00644 42.65C7.66569 42.1021 7.12869 41.771 6.37375 41.771C5.84607 41.771 5.33044 41.926 4.92678 42.5046V41.8938H3.85156V46.834H4.93521V44.0948C4.93521 43.2372 5.41081 42.7815 6.14528 42.7815C6.85868 42.7815 7.21959 43.2466 7.21959 44.084V46.8334H8.30565V44.0942C8.30565 43.2366 8.80141 42.7809 9.51451 42.7809C10.2481 42.7809 10.5982 43.246 10.5982 44.0834V46.8328L11.6866 46.8353Z"
        fill="#231F20" />
    <path
        d="M60.3648 30.4021V29.6797H60.1767L59.9591 30.1755L59.7427 29.6797H59.5539V30.4021H59.6876V29.8579L59.8911 30.3275H60.0295L60.233 29.8567V30.4021H60.3655H60.3648ZM59.1713 30.4021V29.8034H59.4121V29.6815H58.7969V29.8034H59.0377V30.4021H59.1701H59.1713Z"
        fill="#F79410" />
    <path d="M38.9837 33.5006H22.7031V4.24219H38.984L38.9837 33.5006Z" fill="#FF5F00" />
    <path
        d="M23.7317 18.8733C23.7317 12.9383 26.5107 7.65129 30.838 4.24413C27.5625 1.66128 23.5111 0.259482 19.3397 0.265645C9.064 0.265645 0.734375 8.59647 0.734375 18.8733C0.734375 29.1502 9.064 37.481 19.3397 37.481C23.5112 37.4873 27.5627 36.0855 30.8383 33.5026C26.5113 30.096 23.7317 24.8087 23.7317 18.8733Z"
        fill="#EB001B" />
    <path
        d="M60.9414 18.8733C60.9414 29.1502 52.6118 37.481 42.3361 37.481C38.1642 37.4872 34.1122 36.0854 30.8359 33.5026C35.1645 30.0954 37.9434 24.8087 37.9434 18.8733C37.9434 12.938 35.1645 7.65129 30.8359 4.24413C34.1121 1.66136 38.164 0.25959 42.3358 0.265645C52.6115 0.265645 60.9411 8.59647 60.9411 18.8733"
        fill="#F79E1B" />
</svg>