<svg width="81" height="27" viewBox="0 0 81 27" fill="none" xmlns="http://www.w3.org/2000/svg">
    <path
        d="M35.1542 25.609H28.6828L32.7274 0.752739H39.1994L35.1542 25.609ZM23.2387 0.752739L17.0692 17.849L16.3392 14.1675L16.3398 14.1689L14.1623 2.99076C14.1623 2.99076 13.899 0.752739 11.0925 0.752739H0.893118L0.773438 1.17361C0.773438 1.17361 3.89243 1.82255 7.54268 4.01468L13.165 25.6096H19.9076L30.2034 0.752739H23.2387ZM74.1393 25.609H80.0814L74.9006 0.752075H69.6985C67.2963 0.752075 66.7112 2.60446 66.7112 2.60446L57.0596 25.609H63.8056L65.1547 21.9168H73.3813L74.1393 25.609ZM67.0184 16.8165L70.4186 7.51466L72.3315 16.8165H67.0184ZM57.5656 6.73009L58.4892 1.39236C58.4892 1.39236 55.6394 0.308594 52.6687 0.308594C49.4573 0.308594 41.831 1.71217 41.831 8.53726C41.831 14.9588 50.7818 15.0386 50.7818 18.4115C50.7818 21.7845 42.7532 21.1801 40.1036 19.0532L39.1415 24.6342C39.1415 24.6342 42.0311 26.0378 46.446 26.0378C50.8622 26.0378 57.5244 23.7513 57.5244 17.5279C57.5244 11.0652 48.4932 10.4634 48.4932 7.65363C48.4939 4.84314 54.7964 5.20417 57.5656 6.73009Z"
        fill="#2566AF" />
    <path
        d="M16.3398 14.17L14.1623 2.99192C14.1623 2.99192 13.899 0.753906 11.0925 0.753906H0.893118L0.773438 1.17478C0.773438 1.17478 5.67567 2.19073 10.3778 5.99722C14.8737 9.6355 16.3398 14.17 16.3398 14.17Z"
        fill="#E6A540" />
</svg>